<?xml version="1.0" encoding="UTF-8" standalone="no"?><svg xmlns="http://www.w3.org/2000/svg" xmlns:xlink="http://www.w3.org/1999/xlink" contentStyleType="text/css" height="324px" preserveAspectRatio="none" style="width:654px;height:324px;background:#FFFFFF;" version="1.1" viewBox="0 0 654 324" width="654px" zoomAndPan="magnify"><defs/><g><line style="stroke:#000000;stroke-width:1.5;" x1="34.5" x2="34.5" y1="63.9688" y2="83.9688"/><rect fill="#CCCCEE" height="33.9688" rx="12.5" ry="12.5" style="stroke:none;stroke-width:1.5;" width="49" x="10" y="83.9688"/><text fill="#000000" font-family="Helvetica" font-size="12" lengthAdjust="spacing" textLength="29" x="20" y="105.1074">Chat</text><line style="stroke:#000000;stroke-width:1.5;" x1="34.5" x2="44.5" y1="149.9219" y2="149.9219"/><rect fill="#CCCCEE" height="33.9688" rx="12.5" ry="12.5" style="stroke:none;stroke-width:1.5;" width="81" x="44.5" y="132.9375"/><text fill="#000000" font-family="Helvetica" font-size="12" lengthAdjust="spacing" textLength="61" x="54.5" y="154.0762">Chat View</text><line style="stroke:#000000;stroke-width:1.5;" x1="34.5" x2="44.5" y1="198.8906" y2="198.8906"/><rect fill="#CCCCEE" height="33.9688" rx="12.5" ry="12.5" style="stroke:none;stroke-width:1.5;" width="87" x="44.5" y="181.9063"/><text fill="#000000" font-family="Helvetica" font-size="12" lengthAdjust="spacing" textLength="67" x="54.5" y="203.0449">Quick Chat</text><line style="stroke:#000000;stroke-width:1.5;" x1="34.5" x2="44.5" y1="247.8594" y2="247.8594"/><rect fill="#CCCCEE" height="33.9688" rx="12.5" ry="12.5" style="stroke:none;stroke-width:1.5;" width="86" x="44.5" y="230.875"/><text fill="#000000" font-family="Helvetica" font-size="12" lengthAdjust="spacing" textLength="66" x="54.5" y="252.0137">Inline Chat</text><line style="stroke:#000000;stroke-width:1.5;" x1="34.5" x2="34.5" y1="117.9375" y2="247.8594"/><line style="stroke:#000000;stroke-width:1.5;" x1="214.5" x2="214.5" y1="63.9688" y2="83.9688"/><rect fill="#CCCCEE" height="33.9688" rx="12.5" ry="12.5" style="stroke:none;stroke-width:1.5;" width="126" x="151.5" y="83.9688"/><text fill="#000000" font-family="Helvetica" font-size="12" lengthAdjust="spacing" textLength="106" x="161.5" y="105.1074">Code Completion</text><line style="stroke:#000000;stroke-width:1.5;" x1="214.5" x2="224.5" y1="149.9219" y2="149.9219"/><rect fill="#CCCCEE" height="33.9688" rx="12.5" ry="12.5" style="stroke:none;stroke-width:1.5;" width="220" x="224.5" y="132.9375"/><text fill="#000000" font-family="Helvetica" font-size="12" lengthAdjust="spacing" textLength="200" x="234.5" y="154.0762">Coding suggestions as you type</text><line style="stroke:#000000;stroke-width:1.5;" x1="214.5" x2="224.5" y1="198.8906" y2="198.8906"/><rect fill="#CCCCEE" height="33.9688" rx="12.5" ry="12.5" style="stroke:none;stroke-width:1.5;" width="177" x="224.5" y="181.9063"/><text fill="#000000" font-family="Helvetica" font-size="12" lengthAdjust="spacing" textLength="157" x="234.5" y="203.0449">Comment driven prompts</text><line style="stroke:#000000;stroke-width:1.5;" x1="214.5" x2="224.5" y1="247.8594" y2="247.8594"/><rect fill="#CCCCEE" height="33.9688" rx="12.5" ry="12.5" style="stroke:none;stroke-width:1.5;" width="211" x="224.5" y="230.875"/><text fill="#000000" font-family="Helvetica" font-size="12" lengthAdjust="spacing" textLength="191" x="234.5" y="252.0137">Function name driven prompts</text><line style="stroke:#000000;stroke-width:1.5;" x1="214.5" x2="224.5" y1="296.8281" y2="296.8281"/><rect fill="#CCCCEE" height="33.9688" rx="12.5" ry="12.5" style="stroke:none;stroke-width:1.5;" width="154" x="224.5" y="279.8438"/><text fill="#000000" font-family="Helvetica" font-size="12" lengthAdjust="spacing" textLength="134" x="234.5" y="300.9824">Q&amp;A Comment Blocks</text><line style="stroke:#000000;stroke-width:1.5;" x1="214.5" x2="214.5" y1="117.9375" y2="296.8281"/><line style="stroke:#000000;stroke-width:1.5;" x1="518" x2="518" y1="63.9688" y2="83.9688"/><rect fill="#CCCCEE" height="33.9688" rx="12.5" ry="12.5" style="stroke:none;stroke-width:1.5;" width="107" x="464.5" y="83.9688"/><text fill="#000000" font-family="Helvetica" font-size="12" lengthAdjust="spacing" textLength="87" x="474.5" y="105.1074">Smart Actions</text><line style="stroke:#000000;stroke-width:1.5;" x1="518" x2="528" y1="149.9219" y2="149.9219"/><rect fill="#CCCCEE" height="33.9688" rx="12.5" ry="12.5" style="stroke:none;stroke-width:1.5;" width="91" x="528" y="132.9375"/><text fill="#000000" font-family="Helvetica" font-size="12" lengthAdjust="spacing" textLength="71" x="538" y="154.0762">Explain this</text><line style="stroke:#000000;stroke-width:1.5;" x1="518" x2="528" y1="198.8906" y2="198.8906"/><rect fill="#CCCCEE" height="33.9688" rx="12.5" ry="12.5" style="stroke:none;stroke-width:1.5;" width="63" x="528" y="181.9063"/><text fill="#000000" font-family="Helvetica" font-size="12" lengthAdjust="spacing" textLength="43" x="538" y="203.0449">Fix this</text><line style="stroke:#000000;stroke-width:1.5;" x1="518" x2="528" y1="247.8594" y2="247.8594"/><rect fill="#CCCCEE" height="33.9688" rx="12.5" ry="12.5" style="stroke:none;stroke-width:1.5;" width="113" x="528" y="230.875"/><text fill="#000000" font-family="Helvetica" font-size="12" lengthAdjust="spacing" textLength="93" x="538" y="252.0137">Generate docs</text><line style="stroke:#000000;stroke-width:1.5;" x1="518" x2="528" y1="296.8281" y2="296.8281"/><rect fill="#CCCCEE" height="33.9688" rx="12.5" ry="12.5" style="stroke:none;stroke-width:1.5;" width="115" x="528" y="279.8438"/><text fill="#000000" font-family="Helvetica" font-size="12" lengthAdjust="spacing" textLength="95" x="538" y="300.9824">Generate tests</text><line style="stroke:#000000;stroke-width:1.5;" x1="518" x2="518" y1="117.9375" y2="296.8281"/><line style="stroke:#000000;stroke-width:1.5;" x1="34.5" x2="518" y1="63.9688" y2="63.9688"/><rect fill="#CCCCEE" height="33.9688" rx="12.5" ry="12.5" style="stroke:none;stroke-width:1.5;" width="109" x="221.75" y="10"/><text fill="#000000" font-family="Helvetica" font-size="12" lengthAdjust="spacing" textLength="89" x="231.75" y="31.1387">GitHub Copilot</text><line style="stroke:#000000;stroke-width:1.5;" x1="276.25" x2="276.25" y1="43.9688" y2="63.9688"/><!--SRC=[xLBRRjD047tVhnW92LfBBIIGgbWLIkDSIaYWRTgyR-p1NMKzQ-qbQOJwxypQAP6WuWCGbYnxpfmpStPd-ivBwxSh9uHRAwgbbHKK-5q6xSU6_5TP8LoXtg1NkHJYmlcTna-25KCboyZ-8G1kJQ0YCvRGGhV7m4mHvaOR2tTMakEwI9vnQQtPDfAMapMSbPRvch4dViaKk2SC62rjMphINcNyZ4ODyKbSlDrx4GbCbByAAyXChRJn8aaWUv3ns_x0Kk6sYMw2ojU7v6VIRE8vPZttpanLQpwkeSR46qWInXMLu49PeeiPnsJfO6S2-5sDRQC_I2zGgehl0GghDaXGMsxbNPCQ1ygZ22ZU-0k4czUNl_G3RV9rX65HyVZWif6slD5ZhQKYy0zgNraz7e89yeYavmuc_mtnxDg9FbBHh4F__sRyPJF-mO5VQqd-VZw33LeNZNLEk- -wxqyxHuj0C9K4tO_GwQQzyxHt1lTt6SJqiJYQNC_0cM1pRgASjseLehjZCPKR2RU1lAemXMyrqdJuvHc04MsKDHJF9wRB-O5mzk5ae3miqB8JMCx5iDqwLkJDbQVSVNnoBcQIoY1BheqaCju6RtSfKD3w9m00]--></g></svg>