<?xml version="1.0" encoding="UTF-8" standalone="no"?><svg xmlns="http://www.w3.org/2000/svg" xmlns:xlink="http://www.w3.org/1999/xlink" contentStyleType="text/css" height="689px" preserveAspectRatio="none" style="width:769px;height:689px;background:#FFFFFF;" version="1.1" viewBox="0 0 769 689" width="769px" zoomAndPan="magnify"><defs/><g><text fill="#000000" font-family="sans-serif" font-size="14" lengthAdjust="spacing" textLength="36" x="27" y="41.9951">Color</text><text fill="#000000" font-family="sans-serif" font-size="14" lengthAdjust="spacing" textLength="205" x="67" y="41.9951">MVP(Minimum Viable Product)</text><rect fill="#90EE90" height="16.2969" style="stroke:none;stroke-width:1.0;" width="36" x="27" y="45.2969"/><text fill="#000000" font-family="sans-serif" font-size="14" lengthAdjust="spacing" textLength="4" x="27" y="58.292"> </text><text fill="#000000" font-family="sans-serif" font-size="14" lengthAdjust="spacing" textLength="56" x="67" y="58.292">1st MVP</text><rect fill="#F08080" height="16.2969" style="stroke:none;stroke-width:1.0;" width="36" x="27" y="61.5938"/><text fill="#000000" font-family="sans-serif" font-size="14" lengthAdjust="spacing" textLength="4" x="27" y="74.5889"> </text><text fill="#000000" font-family="sans-serif" font-size="14" lengthAdjust="spacing" textLength="61" x="67" y="74.5889">2nd MVP</text><rect fill="#FFD700" height="16.2969" style="stroke:none;stroke-width:1.0;" width="36" x="27" y="77.8906"/><text fill="#000000" font-family="sans-serif" font-size="14" lengthAdjust="spacing" textLength="4" x="27" y="90.8857"> </text><text fill="#000000" font-family="sans-serif" font-size="14" lengthAdjust="spacing" textLength="57" x="67" y="90.8857">3rd MVP</text><line style="stroke:#000000;stroke-width:1.0;" x1="27" x2="276" y1="29" y2="29"/><line style="stroke:#000000;stroke-width:1.0;" x1="27" x2="276" y1="45.2969" y2="45.2969"/><line style="stroke:#000000;stroke-width:1.0;" x1="27" x2="276" y1="61.5938" y2="61.5938"/><line style="stroke:#000000;stroke-width:1.0;" x1="27" x2="276" y1="77.8906" y2="77.8906"/><line style="stroke:#000000;stroke-width:1.0;" x1="27" x2="276" y1="94.1875" y2="94.1875"/><line style="stroke:#000000;stroke-width:1.0;" x1="27" x2="27" y1="29" y2="94.1875"/><line style="stroke:#000000;stroke-width:1.0;" x1="63" x2="63" y1="29" y2="94.1875"/><line style="stroke:#000000;stroke-width:1.0;" x1="276" x2="276" y1="29" y2="94.1875"/><rect fill="#F1F1F1" height="36.2969" rx="12.5" ry="12.5" style="stroke:#181818;stroke-width:1.5;" width="122" x="10" y="377.5234"/><text fill="#000000" font-family="sans-serif" font-size="14" lengthAdjust="spacing" textLength="102" x="20" y="400.5186">Event Tracking</text><rect fill="#F1F1F1" height="36.2969" rx="12.5" ry="12.5" style="stroke:#181818;stroke-width:1.5;" width="151" x="182" y="152.3359"/><text fill="#000000" font-family="sans-serif" font-size="14" lengthAdjust="spacing" textLength="131" x="192" y="175.3311">Event Presentation</text><rect fill="#90EE90" height="36.2969" rx="12.5" ry="12.5" style="stroke:#181818;stroke-width:1.5;" width="175" x="383" y="124.1875"/><text fill="#000000" font-family="sans-serif" font-size="14" lengthAdjust="spacing" textLength="155" x="393" y="147.1826">Display root events list</text><path d="M333,170.4844 L343,170.4844 C358,170.4844 358,142.3359 373,142.3359 L383,142.3359 " fill="none" style="stroke:#181818;stroke-width:1.0;"/><rect fill="#90EE90" height="36.2969" rx="12.5" ry="12.5" style="stroke:#181818;stroke-width:1.5;" width="374" x="383" y="180.4844"/><text fill="#000000" font-family="sans-serif" font-size="14" lengthAdjust="spacing" textLength="354" x="393" y="203.4795">Display root event details in timeline upon selection</text><path d="M333,170.4844 L343,170.4844 C358,170.4844 358,198.6328 373,198.6328 L383,198.6328 " fill="none" style="stroke:#181818;stroke-width:1.0;"/><path d="M132,395.6719 L142,395.6719 C157,395.6719 157,170.4844 172,170.4844 L182,170.4844 " fill="none" style="stroke:#181818;stroke-width:1.0;"/><rect fill="#F1F1F1" height="36.2969" rx="12.5" ry="12.5" style="stroke:#181818;stroke-width:1.5;" width="110" x="182" y="377.5234"/><text fill="#000000" font-family="sans-serif" font-size="14" lengthAdjust="spacing" textLength="90" x="192" y="400.5186">Event Editing</text><rect fill="#90EE90" height="36.2969" rx="12.5" ry="12.5" style="stroke:#181818;stroke-width:1.5;" width="122" x="342" y="236.7813"/><text fill="#000000" font-family="sans-serif" font-size="14" lengthAdjust="spacing" textLength="102" x="352" y="259.7764">Add root event</text><path d="M292,395.6719 L302,395.6719 C317,395.6719 317,254.9297 332,254.9297 L342,254.9297 " fill="none" style="stroke:#181818;stroke-width:1.0;"/><rect fill="#90EE90" height="36.2969" rx="12.5" ry="12.5" style="stroke:#181818;stroke-width:1.5;" width="116" x="342" y="293.0781"/><text fill="#000000" font-family="sans-serif" font-size="14" lengthAdjust="spacing" textLength="96" x="352" y="316.0732">Add subevent</text><path d="M292,395.6719 L302,395.6719 C317,395.6719 317,311.2266 332,311.2266 L342,311.2266 " fill="none" style="stroke:#181818;stroke-width:1.0;"/><rect fill="#F1F1F1" height="36.2969" rx="12.5" ry="12.5" style="stroke:#181818;stroke-width:1.5;" width="141" x="342" y="349.375"/><text fill="#000000" font-family="sans-serif" font-size="14" lengthAdjust="spacing" textLength="121" x="352" y="372.3701">Delete root event</text><path d="M292,395.6719 L302,395.6719 C317,395.6719 317,367.5234 332,367.5234 L342,367.5234 " fill="none" style="stroke:#181818;stroke-width:1.0;"/><rect fill="#90EE90" height="36.2969" rx="12.5" ry="12.5" style="stroke:#181818;stroke-width:1.5;" width="135" x="342" y="405.6719"/><text fill="#000000" font-family="sans-serif" font-size="14" lengthAdjust="spacing" textLength="115" x="352" y="428.667">Delete subevent</text><path d="M292,395.6719 L302,395.6719 C317,395.6719 317,423.8203 332,423.8203 L342,423.8203 " fill="none" style="stroke:#181818;stroke-width:1.0;"/><rect fill="#F1F1F1" height="36.2969" rx="12.5" ry="12.5" style="stroke:#181818;stroke-width:1.5;" width="139" x="342" y="461.9688"/><text fill="#000000" font-family="sans-serif" font-size="14" lengthAdjust="spacing" textLength="119" x="352" y="484.9639">Modify root event</text><path d="M292,395.6719 L302,395.6719 C317,395.6719 317,480.1172 332,480.1172 L342,480.1172 " fill="none" style="stroke:#181818;stroke-width:1.0;"/><rect fill="#F1F1F1" height="36.2969" rx="12.5" ry="12.5" style="stroke:#181818;stroke-width:1.5;" width="133" x="342" y="518.2656"/><text fill="#000000" font-family="sans-serif" font-size="14" lengthAdjust="spacing" textLength="113" x="352" y="541.2607">Modify subevent</text><path d="M292,395.6719 L302,395.6719 C317,395.6719 317,536.4141 332,536.4141 L342,536.4141 " fill="none" style="stroke:#181818;stroke-width:1.0;"/><path d="M132,395.6719 L142,395.6719 C157,395.6719 157,395.6719 172,395.6719 L182,395.6719 " fill="none" style="stroke:#181818;stroke-width:1.0;"/><rect fill="#F1F1F1" height="36.2969" rx="12.5" ry="12.5" style="stroke:#181818;stroke-width:1.5;" width="149" x="182" y="602.7109"/><text fill="#000000" font-family="sans-serif" font-size="14" lengthAdjust="spacing" textLength="129" x="192" y="625.7061">Event Subscription</text><rect fill="#F1F1F1" height="36.2969" rx="12.5" ry="12.5" style="stroke:#181818;stroke-width:1.5;" width="182" x="381" y="574.5625"/><text fill="#000000" font-family="sans-serif" font-size="14" lengthAdjust="spacing" textLength="162" x="391" y="597.5576">Subscribe to root event</text><path d="M331,620.8594 L341,620.8594 C356,620.8594 356,592.7109 371,592.7109 L381,592.7109 " fill="none" style="stroke:#181818;stroke-width:1.0;"/><rect fill="#F1F1F1" height="36.2969" rx="12.5" ry="12.5" style="stroke:#181818;stroke-width:1.5;" width="249" x="381" y="630.8594"/><text fill="#000000" font-family="sans-serif" font-size="14" lengthAdjust="spacing" textLength="229" x="391" y="653.8545">Notify users of root event change</text><path d="M331,620.8594 L341,620.8594 C356,620.8594 356,649.0078 371,649.0078 L381,649.0078 " fill="none" style="stroke:#181818;stroke-width:1.0;"/><path d="M132,395.6719 L142,395.6719 C157,395.6719 157,620.8594 172,620.8594 L182,620.8594 " fill="none" style="stroke:#181818;stroke-width:1.0;"/><!--SRC=[XLHTRzf047o_Nx5INw1IQ25Db5A4qa2IYaAAceJNwh0NvvJpddKVbb38V- -UZHL84NsoRcTsTdRtpfVEI-jpHMak2p5mVgrnA8HxLbH8AtD8SIM3zZU6_9tC4NwWBj6hH0gnpHehcKNcYm3eT9t_avT5TG2uaibpPasWT6IqiQ1LzkGpYqWClqP-ZzB_yHDZfMxuf_OOFpCwhPYlGcE6b5QygI9CAlp1IdBS5v8NTVRjJlOE-eqL1f-QQMorl2b0uyfNfJTLpWPcYtbhfaZb8OU5aakDCBSc3OblmwPc3ZwyzJtS08yePks3LPCCyZpsmDWHXxdjEim-QZT2V8Jhagr6smclAwjIck3SekElzCfG1TJWMBb2opLOOpnWP3eUilE3mNPnm-5HDby7BvLse0Yyob7pQ24KXi2XnYHMUo_LEBfEbMzSrl7lQReZVTX2vBYmFC8OSs6FEqB_OiS5PYPLg_LXWItM2EmrT1-MBh6gU3VYRNY9V5yEYzuP7qM3G-l0h7R7cpn9ob1SyeARDodcMf9_d4sXP3xNWcwdzxbtskcsxWF1H1BqlaAtrp-xw9-Tm-F322BS5gtR-HIS2JP1I7d7x2b4hsqnaQM4tu7Y1llmgq2QZ7ys0RYcKbb3UJGzMSpU2ETVJguKzusMdS1Y9iRrlu4p4fuJPNskVdDo8QRSH90PQ_D37_43ytRT1mfQ_mK0]--></g></svg>